<mxfile host="app.diagrams.net" agent="Mozilla/5.0 (Macintosh; Intel Mac OS X 10_15_7) AppleWebKit/537.36 (KHTML, like Gecko) Chrome/130.0.0.0 Safari/537.36" version="24.8.4">
  <diagram name="Seite-1" id="IPJjsLKTK1ELhKeb1fin">
    <mxGraphModel dx="2140" dy="1370" grid="0" gridSize="10" guides="1" tooltips="1" connect="1" arrows="1" fold="1" page="0" pageScale="1" pageWidth="827" pageHeight="1169" math="0" shadow="0">
      <root>
        <mxCell id="0" />
        <mxCell id="1" parent="0" />
        <mxCell id="eprM2IDgs0wiRKRnByy9-1" value="&amp;nbsp;NASA Mission Control Project (nasa-project)" style="rounded=0;whiteSpace=wrap;html=1;dashed=1;dashPattern=12 12;verticalAlign=bottom;align=left;fillColor=#99CCFF;opacity=20;" vertex="1" parent="1">
          <mxGeometry x="-699" y="-570" width="400" height="225" as="geometry" />
        </mxCell>
        <mxCell id="eprM2IDgs0wiRKRnByy9-2" value="Web Application&lt;br&gt;(nasa-de)" style="rounded=0;whiteSpace=wrap;html=1;fillColor=#dae8fc;strokeColor=#6c8ebf;" vertex="1" parent="1">
          <mxGeometry x="-673" y="-445" width="120" height="60" as="geometry" />
        </mxCell>
        <mxCell id="eprM2IDgs0wiRKRnByy9-3" value="Node API&lt;br&gt;(nasa-project-api)" style="rounded=0;whiteSpace=wrap;html=1;fillColor=#dae8fc;strokeColor=#6c8ebf;" vertex="1" parent="1">
          <mxGeometry x="-451" y="-445" width="120" height="60" as="geometry" />
        </mxCell>
        <mxCell id="eprM2IDgs0wiRKRnByy9-4" value="" style="endArrow=classic;startArrow=classic;html=1;rounded=0;fontSize=12;startSize=8;endSize=8;curved=1;exitX=1;exitY=0.5;exitDx=0;exitDy=0;entryX=0;entryY=0.5;entryDx=0;entryDy=0;strokeWidth=2;" edge="1" parent="1" source="eprM2IDgs0wiRKRnByy9-2" target="eprM2IDgs0wiRKRnByy9-3">
          <mxGeometry width="50" height="50" relative="1" as="geometry">
            <mxPoint x="-527" y="-220" as="sourcePoint" />
            <mxPoint x="-477" y="-270" as="targetPoint" />
          </mxGeometry>
        </mxCell>
        <mxCell id="eprM2IDgs0wiRKRnByy9-5" value="HTTP" style="text;html=1;align=center;verticalAlign=middle;whiteSpace=wrap;rounded=0;fontSize=16;" vertex="1" parent="1">
          <mxGeometry x="-532.5" y="-442" width="60" height="30" as="geometry" />
        </mxCell>
        <mxCell id="eprM2IDgs0wiRKRnByy9-8" value="Web Browser" style="rounded=1;whiteSpace=wrap;html=1;fillColor=#d5e8d4;strokeColor=#82b366;" vertex="1" parent="1">
          <mxGeometry x="-942" y="-514" width="120" height="32" as="geometry" />
        </mxCell>
        <mxCell id="eprM2IDgs0wiRKRnByy9-9" value="" style="endArrow=classic;startArrow=classic;html=1;rounded=0;fontSize=12;startSize=8;endSize=8;exitX=1;exitY=0.5;exitDx=0;exitDy=0;entryX=0;entryY=0.5;entryDx=0;entryDy=0;edgeStyle=orthogonalEdgeStyle;strokeWidth=2;" edge="1" parent="1" source="eprM2IDgs0wiRKRnByy9-8" target="eprM2IDgs0wiRKRnByy9-2">
          <mxGeometry width="50" height="50" relative="1" as="geometry">
            <mxPoint x="-397" y="-220" as="sourcePoint" />
            <mxPoint x="-347" y="-270" as="targetPoint" />
            <Array as="points">
              <mxPoint x="-718" y="-498" />
              <mxPoint x="-718" y="-415" />
            </Array>
          </mxGeometry>
        </mxCell>
        <mxCell id="eprM2IDgs0wiRKRnByy9-10" value="HTTP" style="text;html=1;align=center;verticalAlign=middle;whiteSpace=wrap;rounded=0;fontSize=16;" vertex="1" parent="1">
          <mxGeometry x="-796" y="-526" width="60" height="30" as="geometry" />
        </mxCell>
        <mxCell id="eprM2IDgs0wiRKRnByy9-11" value="kepler_data.csv" style="shape=document;whiteSpace=wrap;html=1;boundedLbl=1;fillColor=#00FF80;opacity=50;" vertex="1" parent="1">
          <mxGeometry x="-450" y="-529" width="109" height="51" as="geometry" />
        </mxCell>
        <mxCell id="eprM2IDgs0wiRKRnByy9-12" value="NASA &lt;br&gt;Exoplanet&lt;br&gt;Archive" style="ellipse;shape=cloud;whiteSpace=wrap;html=1;fillColor=#00FF80;" vertex="1" parent="1">
          <mxGeometry x="-310" y="-714" width="120" height="93" as="geometry" />
        </mxCell>
        <mxCell id="eprM2IDgs0wiRKRnByy9-13" value="" style="endArrow=classic;html=1;rounded=0;fontSize=12;startSize=8;endSize=8;exitX=0.541;exitY=0.804;exitDx=0;exitDy=0;exitPerimeter=0;entryX=0.5;entryY=0;entryDx=0;entryDy=0;edgeStyle=orthogonalEdgeStyle;strokeWidth=2;" edge="1" parent="1" source="eprM2IDgs0wiRKRnByy9-11" target="eprM2IDgs0wiRKRnByy9-3">
          <mxGeometry width="50" height="50" relative="1" as="geometry">
            <mxPoint x="-436" y="-409" as="sourcePoint" />
            <mxPoint x="-386" y="-459" as="targetPoint" />
          </mxGeometry>
        </mxCell>
        <mxCell id="eprM2IDgs0wiRKRnByy9-14" value="" style="endArrow=classic;html=1;rounded=0;fontSize=12;startSize=8;endSize=8;exitX=0.55;exitY=0.95;exitDx=0;exitDy=0;exitPerimeter=0;entryX=0.5;entryY=0;entryDx=0;entryDy=0;edgeStyle=orthogonalEdgeStyle;strokeWidth=2;" edge="1" parent="1" source="eprM2IDgs0wiRKRnByy9-12" target="eprM2IDgs0wiRKRnByy9-11">
          <mxGeometry width="50" height="50" relative="1" as="geometry">
            <mxPoint x="-318" y="-514" as="sourcePoint" />
            <mxPoint x="-381" y="-435" as="targetPoint" />
            <Array as="points">
              <mxPoint x="-244" y="-601" />
              <mxPoint x="-395" y="-601" />
            </Array>
          </mxGeometry>
        </mxCell>
        <mxCell id="eprM2IDgs0wiRKRnByy9-15" value="manual download" style="text;html=1;align=center;verticalAlign=middle;whiteSpace=wrap;rounded=0;fontSize=16;" vertex="1" parent="1">
          <mxGeometry x="-407" y="-628" width="150" height="30" as="geometry" />
        </mxCell>
      </root>
    </mxGraphModel>
  </diagram>
</mxfile>
